General:
=============

Complete name                    : The Tuxedo [2002] MULTISUBS-DVDR-trother
Format                           : MPEG-PS
File size                        : 5,25 GB
Duration                         : 01:34:42
Overall bit rate                 : 7 807 Kbps

Video:
=============

Format                           : MPEG Video
Format version                   : Version 2
Format profile                   : Main@Main
Format settings, BVOP            : Yes
Format settings, Matrix          : Default
Bit rate mode                    : Variable
Bit rate                         : 6 819 Kbps
Nominal bit rate                 : 9 800 Kbps
Width                            : 720 pixels
Height                           : 576 pixels
Display aspect ratio             : 16:9
Frame rate                       : 25.000 fps
Standard                         : PAL
Color space                      : YUV
Chroma subsampling               : 4:2:0
Bit depth                        : 8 bits
Compression mode                 : Lossy
Bits/(Pixel*Frame)               : 0.658
Stream size                      : 894 MiB (87%)

Audio #1:
=============

ID                               : [ENGLISH][DEFAULT]
Format                           : AC-3
Format/Info                      : Audio Coding 3
Mode extension                   : CM (complete main)
Muxing mode                      : DVD-Video
Bit rate mode                    : Constant
Bit rate                         : 448 Kbps
Channel(s)                       : 6 channels
Channel positions                : Front: L C R, Side: L R, LFE
Sampling rate                    : 48.0 KHz
Bit depth                        : 16 bits
Compression mode                 : Lossy
Stream size                      : 58.8 MiB (6%)

Audio #2:
=============

ID                               : [RUSSIAN]
Format                           : AC-3
Format/Info                      : Audio Coding 3
Mode extension                   : CM (complete main)
Muxing mode                      : DVD-Video
Bit rate mode                    : Constant
Bit rate                         : 384 Kbps
Channel(s)                       : 6 channels
Channel positions                : Front: L C R, Side: L R, LFE
Sampling rate                    : 48.0 KHz
Bit depth                        : 16 bits
Compression mode                 : Lossy
Stream size                      : 50.4 MiB (5%)

Subtitles:
=============

Text #1                          : English (Default)

Text #2                          : Svenska
                
Text #3                          : Dansk

Text #4                          : Norsk

Text #5                          : Suomi

Text #6                          : Russian

Text #7                          : Islendska

Text #8                          : Lithuanian


Plot:
=============

Jimmy Tong is just a lowly chauffeur for millionaire Clark Devlin, until Devlin has an accident that puts him in the hospital. Tong is sent back to fetch some things for Devlin and unknowingly tries on Devlin\\\\\\\'s tuxedo and finds that it gives extraordinary powers to anyone that dons the suit. This discovery thrusts Tong into world of international intrigue and espionage and pairs him with an inexperienced partner.

Cast:
=============

Jackie Chan, Jennifer Love Hewitt, Jason Isaacs, Debi Mazar, Peter Stormare

----------------------------------------------------
IMDB Link: http://www.imdb.com/title/tt0290095/
----------------------------------------------------




Enjoy and please seed! 